<svg width="69" height="69" viewBox="0 0 69 69" fill="none" xmlns="http://www.w3.org/2000/svg">
<path d="M34.5 0.75C15.87 0.75 0.75 15.87 0.75 34.5C0.75 53.13 15.87 68.25 34.5 68.25C53.13 68.25 68.25 53.13 68.25 34.5C68.25 15.87 53.13 0.75 34.5 0.75ZM34.5 14.25C41.0137 14.25 46.3125 19.5487 46.3125 26.0625C46.3125 32.5763 41.0137 37.875 34.5 37.875C27.9862 37.875 22.6875 32.5763 22.6875 26.0625C22.6875 19.5487 27.9862 14.25 34.5 14.25ZM34.5 61.5C27.6488 61.5 19.5487 58.7325 13.7775 51.78C19.6892 47.1418 26.986 44.621 34.5 44.621C42.014 44.621 49.3108 47.1418 55.2225 51.78C49.4512 58.7325 41.3512 61.5 34.5 61.5Z" fill="#65A664"/>
</svg>
