<svg width="21" height="21" viewBox="0 0 21 21" fill="none" xmlns="http://www.w3.org/2000/svg">
<path d="M9.54169 13.3753H11.4584V15.292H9.54169V13.3753ZM9.54169 5.70866H11.4584V11.4587H9.54169V5.70866ZM10.5 0.916992C5.20044 0.916992 0.916687 5.22949 0.916687 10.5003C0.916687 13.042 1.92636 15.4795 3.72358 17.2768C4.61348 18.1667 5.66993 18.8726 6.83264 19.3542C7.99534 19.8358 9.24152 20.0837 10.5 20.0837C13.0417 20.0837 15.4792 19.074 17.2765 17.2768C19.0737 15.4795 20.0834 13.042 20.0834 10.5003C20.0834 9.24182 19.8355 7.99565 19.3539 6.83294C18.8723 5.67024 18.1664 4.61378 17.2765 3.72389C16.3866 2.83399 15.3301 2.12809 14.1674 1.64648C13.0047 1.16487 11.7585 0.916992 10.5 0.916992ZM10.5 18.167C8.46669 18.167 6.51665 17.3593 5.07887 15.9215C3.64109 14.4837 2.83335 12.5337 2.83335 10.5003C2.83335 8.467 3.64109 6.51695 5.07887 5.07917C6.51665 3.64139 8.46669 2.83366 10.5 2.83366C12.5333 2.83366 14.4834 3.64139 15.9212 5.07917C17.359 6.51695 18.1667 8.467 18.1667 10.5003C18.1667 12.5337 17.359 14.4837 15.9212 15.9215C14.4834 17.3593 12.5333 18.167 10.5 18.167Z" fill="#7F828B"/>
</svg>
