<svg width="92" height="51" viewBox="0 0 92 51" fill="none" xmlns="http://www.w3.org/2000/svg">
<path d="M84.3333 0H34.5C30.2833 0 26.8333 3.53077 26.8333 7.84615V43.1538C26.8333 47.5085 30.2833 51 34.5 51H84.3333C88.5883 51 92 47.5085 92 43.1538V7.84615C92 3.53077 88.5883 0 84.3333 0ZM84.3333 43.1538H34.5V14.3977L59.4167 27.4615L84.3333 14.3977V43.1538ZM59.4167 20.8315L34.5 7.84615H84.3333L59.4167 20.8315ZM19.1667 43.1538C19.1667 43.8208 19.2817 44.4485 19.3583 45.1154H3.83333C1.71733 45.1154 0 43.35 0 41.1923C0 39.0346 1.71733 37.2692 3.83333 37.2692H19.1667V43.1538ZM11.5 5.88462H19.3583C19.2817 6.55154 19.1667 7.17923 19.1667 7.84615V13.7308H11.5C9.39167 13.7308 7.66667 11.9654 7.66667 9.80769C7.66667 7.65 9.39167 5.88462 11.5 5.88462ZM3.83333 25.5C3.83333 23.3423 5.55833 21.5769 7.66667 21.5769H19.1667V29.4231H7.66667C5.55833 29.4231 3.83333 27.6577 3.83333 25.5Z" fill="#65A664"/>
</svg>
