<svg width="21" height="21" viewBox="0 0 21 21" fill="none" xmlns="http://www.w3.org/2000/svg">
<path fill-rule="evenodd" clip-rule="evenodd" d="M5.82634 20.7617H14.493C17.8833 20.7617 20.1602 18.3836 20.1602 14.845V6.67844C20.1602 3.13983 17.8833 0.761719 14.494 0.761719H5.82634C2.43705 0.761719 0.160156 3.13983 0.160156 6.67844V14.845C0.160156 18.3836 2.43705 20.7617 5.82634 20.7617ZM6.65901 9.76172C5.28037 9.76172 4.16016 8.63999 4.16016 7.26172C4.16016 5.88345 5.28037 4.76172 6.65901 4.76172C8.03665 4.76172 9.15787 5.88345 9.15787 7.26172C9.15787 8.63999 8.03665 9.76172 6.65901 9.76172ZM17.981 13.6957C18.3158 14.5543 18.1419 15.5863 17.7839 16.4366C17.3595 17.448 16.547 18.2137 15.5233 18.5481C15.0688 18.6967 14.5922 18.7617 14.1165 18.7617H5.6888C4.85015 18.7617 4.10803 18.5605 3.49966 18.1859C3.11855 17.9506 3.05117 17.4077 3.33374 17.0558C3.80636 16.4676 4.27295 15.8773 4.74356 15.2818C5.64053 14.1425 6.24488 13.8123 6.91661 14.1023C7.18912 14.222 7.46264 14.4016 7.7442 14.5914C8.49436 15.1012 9.53714 15.802 10.9108 15.0414C11.8508 14.5149 12.396 13.6119 12.8707 12.8254L12.8787 12.8123C12.9123 12.7571 12.9457 12.702 12.9789 12.6469C13.1385 12.3829 13.2959 12.1224 13.474 11.8825C13.6972 11.5822 14.5248 10.643 15.5967 11.3118C16.2795 11.7328 16.8537 12.3025 17.4681 12.9124C17.7024 13.1456 17.8694 13.4108 17.981 13.6957Z" fill="#65A664"/>
</svg>
