<svg width="108" height="102" viewBox="0 0 108 102" fill="none" xmlns="http://www.w3.org/2000/svg">
<path d="M107.167 51L95.5673 37.4667L97.0173 19.5833L79.6173 15.7167L70.434 0.25L54.0007 7.5L37.5673 0.25L28.384 15.7167L10.984 19.5833L12.434 37.4667L0.833984 51L12.434 64.5333L10.984 82.4167L28.384 86.2833L37.5673 101.75L54.0007 94.5L70.434 101.75L79.6173 86.2833L97.0173 82.4167L95.5673 64.5333L107.167 51ZM86.384 74.6833L73.334 77.5833L66.5673 89.1833L54.0007 83.8667L41.434 89.1833L34.6673 77.5833L21.6173 74.6833L22.584 61.15L13.884 51L22.584 40.85L21.6173 27.3167L34.6673 24.4167L41.434 12.8167L54.0007 18.1333L66.5673 12.8167L73.334 24.4167L86.384 27.3167L85.4173 40.85L94.1173 51L85.4173 61.15L86.384 74.6833ZM76.234 29.7333L83.0007 36.5L44.334 75.1667L25.0007 55.8333L31.7673 49.0667L44.334 61.6333L76.234 29.7333Z" fill="#65A664"/>
</svg>
