<svg width="20" height="16" viewBox="0 0 20 16" fill="none" xmlns="http://www.w3.org/2000/svg">
<path d="M15 11C14.3 11 13.7083 10.7583 13.225 10.275C12.7417 9.79167 12.5 9.2 12.5 8.5C12.5 7.8 12.7417 7.20833 13.225 6.725C13.7083 6.24167 14.3 6 15 6C15.7 6 16.2917 6.24167 16.775 6.725C17.2583 7.20833 17.5 7.8 17.5 8.5C17.5 9.2 17.2583 9.79167 16.775 10.275C16.2917 10.7583 15.7 11 15 11ZM10 16V14.6C10 14.2 10.104 13.8293 10.312 13.488C10.5207 13.146 10.8167 12.9 11.2 12.75C11.8 12.5 12.421 12.3127 13.063 12.188C13.7043 12.0627 14.35 12 15 12C15.65 12 16.296 12.0627 16.938 12.188C17.5793 12.3127 18.2 12.5 18.8 12.75C19.1833 12.9 19.4793 13.146 19.688 13.488C19.896 13.8293 20 14.2 20 14.6V16H10ZM8 8C6.9 8 5.95833 7.60833 5.175 6.825C4.39167 6.04167 4 5.1 4 4C4 2.9 4.39167 1.95833 5.175 1.175C5.95833 0.391667 6.9 0 8 0C9.1 0 10.0417 0.391667 10.825 1.175C11.6083 1.95833 12 2.9 12 4C12 5.1 11.6083 6.04167 10.825 6.825C10.0417 7.60833 9.1 8 8 8ZM0 16V13C0 12.5667 0.15 12.1377 0.45 11.713C0.75 11.2877 1.19167 10.9167 1.775 10.6C2.675 10.1167 3.65833 9.72933 4.725 9.438C5.79167 9.146 6.88333 9 8 9C8.45 9 8.92933 9.03333 9.438 9.1C9.946 9.16667 10.4667 9.26667 11 9.4V10.7C10.7667 10.7833 10.5667 10.8667 10.4 10.95C10.2333 11.0333 10.0583 11.125 9.875 11.225C9.25833 11.575 8.79167 12.0333 8.475 12.6C8.15833 13.1667 8 13.6333 8 14V16H0Z" fill="#65A664"/>
</svg>
