<svg width="108" height="102" viewBox="0 0 108 102" fill="none" xmlns="http://www.w3.org/2000/svg">
<path d="M107.167 51L95.5668 37.4667L97.0168 19.5833L79.6168 15.7167L70.4335 0.25L54.0002 7.5L37.5668 0.25L28.3835 15.7167L10.9835 19.5833L12.4335 37.4667L0.833496 51L12.4335 64.5333L10.9835 82.4167L28.3835 86.2833L37.5668 101.75L54.0002 94.5L70.4335 101.75L79.6168 86.2833L97.0168 82.4167L95.5668 64.5333L107.167 51ZM86.3835 74.6833L73.3335 77.5833L66.5668 89.1833L54.0002 83.8667L41.4335 89.1833L34.6668 77.5833L21.6168 74.6833L22.5835 61.15L13.8835 51L22.5835 40.85L21.6168 27.3167L34.6668 24.4167L41.4335 12.8167L54.0002 18.1333L66.5668 12.8167L73.3335 24.4167L86.3835 27.3167L85.4168 40.85L94.1168 51L85.4168 61.15L86.3835 74.6833ZM76.2335 29.7333L83.0002 36.5L44.3335 75.1667L25.0002 55.8333L31.7668 49.0667L44.3335 61.6333L76.2335 29.7333Z" fill="#65A664"/>
</svg>
