<svg width="109" height="101" viewBox="0 0 109 101" fill="none" xmlns="http://www.w3.org/2000/svg">
<path fill-rule="evenodd" clip-rule="evenodd" d="M119.484 97.7743C155 97.7743 183.792 68.9826 183.792 33.4663C183.792 -2.05009 155 -30.8418 119.484 -30.8418C83.9675 -30.8418 55.1758 -2.05009 55.1758 33.4663C55.1758 68.9826 83.9675 97.7743 119.484 97.7743ZM119.484 100.774C156.657 100.774 186.792 70.6395 186.792 33.4663C186.792 -3.70695 156.657 -33.8418 119.484 -33.8418C82.3106 -33.8418 52.1758 -3.70695 52.1758 33.4663C52.1758 70.6395 82.3106 100.774 119.484 100.774Z" fill="url(#paint0_linear_1075_6068)"/>
<path fill-rule="evenodd" clip-rule="evenodd" d="M104.123 97.7743C139.64 97.7743 168.432 68.9826 168.432 33.4663C168.432 -2.05009 139.64 -30.8418 104.123 -30.8418C68.6071 -30.8418 39.8154 -2.05009 39.8154 33.4663C39.8154 68.9826 68.6071 97.7743 104.123 97.7743ZM104.123 100.774C141.297 100.774 171.432 70.6395 171.432 33.4663C171.432 -3.70695 141.297 -33.8418 104.123 -33.8418C66.9503 -33.8418 36.8154 -3.70695 36.8154 33.4663C36.8154 70.6395 66.9503 100.774 104.123 100.774Z" fill="url(#paint1_linear_1075_6068)"/>
<path fill-rule="evenodd" clip-rule="evenodd" d="M87.9497 93.204C123.466 93.204 152.258 64.4123 152.258 28.896C152.258 -6.62041 123.466 -35.4121 87.9497 -35.4121C52.4333 -35.4121 23.6416 -6.62041 23.6416 28.896C23.6416 64.4123 52.4333 93.204 87.9497 93.204ZM87.9497 96.204C125.123 96.204 155.258 66.0692 155.258 28.896C155.258 -8.27726 125.123 -38.4121 87.9497 -38.4121C50.7765 -38.4121 20.6416 -8.27726 20.6416 28.896C20.6416 66.0692 50.7765 96.204 87.9497 96.204Z" fill="url(#paint2_linear_1075_6068)"/>
<path fill-rule="evenodd" clip-rule="evenodd" d="M75.6538 80.8368C111.17 80.8368 139.962 52.0451 139.962 16.5288C139.962 -18.9876 111.17 -47.7793 75.6538 -47.7793C40.1374 -47.7793 11.3457 -18.9876 11.3457 16.5288C11.3457 52.0451 40.1374 80.8368 75.6538 80.8368ZM75.6538 83.8368C112.827 83.8368 142.962 53.702 142.962 16.5288C142.962 -20.6444 112.827 -50.7793 75.6538 -50.7793C38.4806 -50.7793 8.3457 -20.6444 8.3457 16.5288C8.3457 53.702 38.4806 83.8368 75.6538 83.8368Z" fill="url(#paint3_linear_1075_6068)"/>
<path fill-rule="evenodd" clip-rule="evenodd" d="M67.6538 64.8095C103.17 64.8095 131.962 36.0178 131.962 0.501427C131.962 -35.0149 103.17 -63.8066 67.6538 -63.8066C32.1374 -63.8066 3.3457 -35.0149 3.3457 0.501427C3.3457 36.0178 32.1374 64.8095 67.6538 64.8095ZM67.6538 67.8095C104.827 67.8095 134.962 37.6746 134.962 0.501427C134.962 -36.6718 104.827 -66.8066 67.6538 -66.8066C30.4806 -66.8066 0.345703 -36.6718 0.345703 0.501427C0.345703 37.6746 30.4806 67.8095 67.6538 67.8095Z" fill="url(#paint4_linear_1075_6068)"/>
<path fill-rule="evenodd" clip-rule="evenodd" d="M71.6538 51.4892C107.17 51.4892 135.962 22.6975 135.962 -12.8189C135.962 -48.3353 107.17 -77.127 71.6538 -77.127C36.1374 -77.127 7.3457 -48.3353 7.3457 -12.8189C7.3457 22.6975 36.1374 51.4892 71.6538 51.4892ZM71.6538 54.4892C108.827 54.4892 138.962 24.3543 138.962 -12.8189C138.962 -49.9921 108.827 -80.127 71.6538 -80.127C34.4806 -80.127 4.3457 -49.9921 4.3457 -12.8189C4.3457 24.3543 34.4806 54.4892 71.6538 54.4892Z" fill="url(#paint5_linear_1075_6068)"/>
<path fill-rule="evenodd" clip-rule="evenodd" d="M75.6538 37.204C111.17 37.204 139.962 8.41232 139.962 -27.104C139.962 -62.6204 111.17 -91.4121 75.6538 -91.4121C40.1374 -91.4121 11.3457 -62.6204 11.3457 -27.104C11.3457 8.41232 40.1374 37.204 75.6538 37.204ZM75.6538 40.204C112.827 40.204 142.962 10.0692 142.962 -27.104C142.962 -64.2773 112.827 -94.4121 75.6538 -94.4121C38.4806 -94.4121 8.3457 -64.2773 8.3457 -27.104C8.3457 10.0692 38.4806 40.204 75.6538 40.204Z" fill="url(#paint6_linear_1075_6068)"/>
<path fill-rule="evenodd" clip-rule="evenodd" d="M80.4106 22.6161C115.927 22.6161 144.719 -6.17557 144.719 -41.6919C144.719 -77.2083 115.927 -106 80.4106 -106C44.8942 -106 16.1025 -77.2083 16.1025 -41.6919C16.1025 -6.17557 44.8942 22.6161 80.4106 22.6161ZM80.4106 25.6161C117.584 25.6161 147.719 -4.51871 147.719 -41.6919C147.719 -78.8652 117.584 -109 80.4106 -109C43.2374 -109 13.1025 -78.8652 13.1025 -41.6919C13.1025 -4.51871 43.2374 25.6161 80.4106 25.6161Z" fill="url(#paint7_linear_1075_6068)"/>
<defs>
<linearGradient id="paint0_linear_1075_6068" x1="119.484" y1="-33.8418" x2="119.484" y2="100.774" gradientUnits="userSpaceOnUse">
<stop stop-color="white"/>
<stop offset="1" stop-color="white" stop-opacity="0"/>
</linearGradient>
<linearGradient id="paint1_linear_1075_6068" x1="104.123" y1="-33.8418" x2="104.123" y2="100.774" gradientUnits="userSpaceOnUse">
<stop stop-color="white"/>
<stop offset="1" stop-color="white" stop-opacity="0"/>
</linearGradient>
<linearGradient id="paint2_linear_1075_6068" x1="87.9497" y1="-38.4121" x2="87.9497" y2="96.204" gradientUnits="userSpaceOnUse">
<stop stop-color="white"/>
<stop offset="1" stop-color="white" stop-opacity="0"/>
</linearGradient>
<linearGradient id="paint3_linear_1075_6068" x1="75.6538" y1="-50.7793" x2="75.6538" y2="83.8368" gradientUnits="userSpaceOnUse">
<stop stop-color="white"/>
<stop offset="1" stop-color="white" stop-opacity="0"/>
</linearGradient>
<linearGradient id="paint4_linear_1075_6068" x1="67.6538" y1="-66.8066" x2="67.6538" y2="67.8095" gradientUnits="userSpaceOnUse">
<stop stop-color="white"/>
<stop offset="1" stop-color="white" stop-opacity="0"/>
</linearGradient>
<linearGradient id="paint5_linear_1075_6068" x1="71.6538" y1="-80.127" x2="71.6538" y2="54.4892" gradientUnits="userSpaceOnUse">
<stop stop-color="white"/>
<stop offset="1" stop-color="white" stop-opacity="0"/>
</linearGradient>
<linearGradient id="paint6_linear_1075_6068" x1="75.6538" y1="-94.4121" x2="75.6538" y2="40.204" gradientUnits="userSpaceOnUse">
<stop stop-color="white"/>
<stop offset="1" stop-color="white" stop-opacity="0"/>
</linearGradient>
<linearGradient id="paint7_linear_1075_6068" x1="80.4106" y1="-109" x2="80.4106" y2="25.6161" gradientUnits="userSpaceOnUse">
<stop stop-color="white"/>
<stop offset="1" stop-color="white" stop-opacity="0"/>
</linearGradient>
</defs>
</svg>
