<svg width="17" height="20" viewBox="0 0 17 20" fill="none" xmlns="http://www.w3.org/2000/svg">
<path d="M16.0001 17.9999H2.00005C1.73484 17.9999 1.48048 18.1052 1.29295 18.2928C1.10541 18.4803 1.00005 18.7346 1.00005 18.9999C1.00005 19.2651 1.10541 19.5194 1.29295 19.707C1.48048 19.8945 1.73484 19.9999 2.00005 19.9999H16.0001C16.2653 19.9999 16.5196 19.8945 16.7072 19.707C16.8947 19.5194 17.0001 19.2651 17.0001 18.9999C17.0001 18.7346 16.8947 18.4803 16.7072 18.2928C16.5196 18.1052 16.2653 17.9999 16.0001 17.9999ZM2.00005 15.9999H2.09005L6.26005 15.6199C6.71685 15.5744 7.14409 15.3731 7.47005 15.0499L16.4701 6.04986C16.8194 5.68083 17.0082 5.18837 16.995 4.68039C16.9819 4.17242 16.768 3.69037 16.4001 3.33986L13.6601 0.599858C13.3024 0.263954 12.8338 0.0712167 12.3434 0.0583099C11.8529 0.0454032 11.3748 0.213227 11.0001 0.529858L2.00005 9.52986C1.67682 9.85582 1.47556 10.2831 1.43005 10.7399L1.00005 14.9099C0.986582 15.0563 1.00559 15.204 1.05571 15.3422C1.10584 15.4805 1.18585 15.606 1.29005 15.7099C1.38349 15.8025 1.49431 15.8759 1.61615 15.9256C1.73798 15.9754 1.86845 16.0006 2.00005 15.9999ZM12.2701 1.99986L15.0001 4.72986L13.0001 6.67986L10.3201 3.99986L12.2701 1.99986Z" fill="#7F828B"/>
</svg>
