<svg width="20" height="22" viewBox="0 0 20 22" fill="none" xmlns="http://www.w3.org/2000/svg">
<path d="M10.9166 4.58317V1.01734C11.3791 1.13869 11.8003 1.38253 12.1358 1.72317L14.7025 4.3265C15.0263 4.65389 15.2627 5.05734 15.39 5.49984H11.8333C11.5902 5.49984 11.357 5.40326 11.1851 5.23135C11.0132 5.05944 10.9166 4.82629 10.9166 4.58317ZM18.91 16.839L17.0766 14.9415C16.9495 14.8096 16.7858 14.7188 16.6065 14.6808C16.4273 14.6429 16.2408 14.6595 16.0711 14.7286C15.9014 14.7976 15.7563 14.916 15.6545 15.0683C15.5527 15.2206 15.4989 15.4 15.5 15.5832V16.4998H12.75C12.5069 16.4998 12.2737 16.5964 12.1018 16.7683C11.9299 16.9402 11.8333 17.1734 11.8333 17.4165C11.8333 17.6596 11.9299 17.8928 12.1018 18.0647C12.2737 18.2366 12.5069 18.3332 12.75 18.3332H15.5V19.2498C15.5001 19.4298 15.5532 19.6057 15.6527 19.7556C15.7521 19.9056 15.8935 20.023 16.0591 20.0932C16.1728 20.1394 16.294 20.1642 16.4166 20.1665C16.6558 20.1679 16.8861 20.0758 17.0583 19.9098L18.8916 18.1315C19.0644 17.9623 19.1632 17.7316 19.1666 17.4898C19.1705 17.2475 19.0782 17.0135 18.91 16.839V16.839ZM14.5833 12.8332C14.8264 12.8332 15.0596 12.7366 15.2315 12.5647C15.4034 12.3928 15.5 12.1596 15.5 11.9165V7.33317H11.8333C11.104 7.33317 10.4045 7.04344 9.88877 6.52771C9.37304 6.01199 9.08331 5.31252 9.08331 4.58317V0.916504H3.58331C2.85397 0.916504 2.15449 1.20624 1.63877 1.72196C1.12304 2.23769 0.833313 2.93716 0.833313 3.6665V18.3332C0.833313 19.0625 1.12304 19.762 1.63877 20.2777C2.15449 20.7934 2.85397 21.0832 3.58331 21.0832H9.82581H10.0091C10.0699 21.0747 10.1287 21.0561 10.1833 21.0282L10.2933 20.9732C10.3997 20.909 10.4919 20.824 10.5644 20.7231C10.6369 20.6223 10.6881 20.5078 10.715 20.3865C10.7239 20.3196 10.7239 20.2518 10.715 20.1848C10.7277 20.1059 10.7277 20.0254 10.715 19.9465C10.6981 19.8653 10.6671 19.7878 10.6233 19.7173C10.2113 19.0209 9.99583 18.2257 9.99998 17.4165C9.99998 16.2009 10.4829 15.0351 11.3424 14.1756C12.2019 13.3161 13.3677 12.8332 14.5833 12.8332V12.8332Z" fill="#65A664"/>
</svg>
