<svg width="142" height="25" viewBox="0 0 142 25" fill="none" xmlns="http://www.w3.org/2000/svg">
<path d="M12.0518 17.4631V17.4698H12.319C12.2288 17.4732 12.1386 17.4698 12.0518 17.4631Z" fill="#64A664"/>
<path d="M23.8426 16.8903C24.3637 15.5269 24.6476 14.0462 24.6476 12.4952C24.6476 5.66813 19.1295 0.137451 12.3221 0.137451C5.51806 0.137451 0 5.67148 0 12.4952C0 14.1233 0.313982 15.6776 0.885162 17.1013C0.99539 17.3794 1.11564 17.6541 1.24591 17.9221C1.777 19.0108 2.46175 20.0057 3.27009 20.8867C3.53731 21.1748 3.81121 21.4461 4.10181 21.7074C6.28298 23.6671 9.1656 24.8597 12.3188 24.8597C15.4753 24.8597 18.3579 23.6705 20.5391 21.7074C20.6627 21.5969 20.7829 21.4863 20.8998 21.3725H12.3188C12.2286 21.3725 12.1384 21.3691 12.0516 21.3658C11.1397 21.3423 10.2612 21.1715 9.43616 20.8867C7.79276 20.3172 6.36648 19.2754 5.32433 17.9221C5.12058 17.6608 4.93352 17.3861 4.75983 17.1013C3.94481 15.758 3.47384 14.1802 3.47384 12.4952C3.47384 7.60437 7.44204 3.6247 12.3188 3.6247C17.1989 3.6247 21.1671 7.60437 21.1671 12.4952C21.1671 14.0898 20.7428 15.5939 20.0047 16.8903H23.8426Z" fill="#64A664"/>
<path d="M23.6054 17.4731C23.5386 17.6272 23.4718 17.778 23.3983 17.9253C22.8839 18.9739 22.2293 19.9386 21.4577 20.7929H12.3221C9.86372 20.7929 7.65917 19.7075 6.15272 17.989C5.92225 17.7244 5.70847 17.4497 5.5114 17.1582C4.61621 15.8317 4.0918 14.2271 4.0918 12.5019C4.0918 7.92256 7.77608 4.20752 12.3255 4.20752C16.8749 4.20752 20.5591 7.92256 20.5591 12.5019C20.5591 14.1132 20.1015 15.6206 19.3099 16.8936H14.6302C16.1935 16.0595 17.259 14.4046 17.259 12.5019C17.259 9.76165 15.0444 7.52727 12.3221 7.52727C9.60318 7.52727 7.38527 9.76165 7.38527 12.5019C7.38527 14.6324 8.72136 16.4514 10.5952 17.1582C11.0528 17.3291 11.5439 17.4396 12.0549 17.4664V17.4731H23.6054Z" fill="#64A664"/>
<path d="M12.0518 21.3657C12.1386 21.3691 12.2288 21.3724 12.319 21.3724H12.0518V21.3657Z" fill="#64A664"/>
<path d="M12.319 17.4733H12.0518V17.4666C12.1386 17.4699 12.2288 17.4733 12.319 17.4733Z" fill="#64A664"/>
<path d="M32.5806 3.88244L37.2703 3.15552V7.98942H42.8351V11.9456H37.2502V18.0458C37.2502 18.0458 37.0999 20.9669 39.8289 20.8966C39.8289 20.8966 42.1737 20.7693 42.8351 20.3271L43.4964 23.9182C43.4964 23.9182 41.0514 25.3586 36.8861 24.6753C36.8861 24.6753 32.6641 24.1761 32.5806 18.4177V3.88244Z" fill="#212324"/>
<path d="M45.0327 8.81011V24.4608H49.6656V11.8585C49.6656 11.8585 51.9103 11.2589 54.8396 12.1433L55.7782 8.29423C55.7782 8.29423 51.7132 6.64273 45.0327 8.81011Z" fill="#212324"/>
<path d="M56.5166 7.95264H61.1228V16.9907C61.1228 16.9907 61.2363 19.6706 62.0046 20.2401C62.0046 20.2401 62.9866 21.3087 66.0029 20.699V7.95264H70.6625V23.9182C70.6625 23.9182 62.0914 26.3402 58.5942 23.4057C58.5942 23.4057 56.5467 21.8949 56.5199 17.7042V7.95264H56.5166Z" fill="#212324"/>
<path d="M85.6703 8.43827L84.7117 12.2438C84.7117 12.2438 83.6462 11.6039 81.3213 11.5604C81.3213 11.5604 77.2997 11.3728 77.44 16.4077C77.44 16.4077 77.1394 21.0975 81.5518 20.9267C81.5518 20.9267 83.8933 20.8396 85.2862 20.3003L85.9977 24.0622C85.9977 24.0622 83.4958 25.2012 80.3126 24.8595C80.3126 24.8595 72.4965 24.9734 72.6668 16.1363C72.6668 16.1363 72.3261 8.03963 80.9673 7.5271C80.9639 7.5271 83.6929 7.5539 85.6703 8.43827Z" fill="#212324"/>
<path d="M87.561 0.968121V24.461H92.1305V17.3123C92.1305 17.3123 95.1567 19.828 97.7153 24.461H103.13C103.13 24.461 100.658 19.5567 96.2223 15.2588C96.2223 15.2588 101.66 9.50701 102.833 8.03305H97.2477C97.2477 8.03305 94.1346 11.8385 92.1939 13.9356V0L87.561 0.968121Z" fill="#212324"/>
<path d="M113.768 2.23767C113.768 2.23767 103.748 2.51906 103.32 13.2722C103.32 13.2722 102.595 24.136 113.768 24.9902C113.768 24.9902 124.557 25.7607 124.898 13.6139C124.898 13.6139 125.068 2.19412 113.768 2.23767ZM119.453 16.7059C117.98 20.9368 114.106 20.6688 114.106 20.6688C108.057 20.3539 108.481 13.6173 108.481 13.6173C108.477 6.35805 114.106 6.64279 114.106 6.64279C117.419 6.73993 118.869 8.94417 119.504 10.857C120.131 12.753 120.108 14.8199 119.453 16.7059Z" fill="#212324"/>
<path d="M140.778 3.73511L139.411 7.64109C139.411 7.64109 138.015 7.06491 137.564 6.93091C136.101 6.49878 133.783 6.01974 132.397 6.85722C131.836 7.19556 131.425 7.81864 131.448 8.47187C131.475 9.22225 132.043 9.84868 132.671 10.2641C134.591 11.537 136.98 11.7481 138.924 13.0579C140.54 14.1466 142.007 15.8785 142 17.9353C141.993 19.9888 140.965 22.2868 139.271 23.4727C137.517 24.6988 135.006 24.9634 132.918 24.9366C131.809 24.9232 130.703 24.7859 129.625 24.5346C129.294 24.4576 126 23.4593 126.081 23.2382L127.447 19.3892C127.447 19.3892 130.677 21.101 133.95 20.7861C134.538 20.7291 135.169 20.5315 135.684 20.2468C136.085 20.0223 136.442 19.694 136.626 19.2686C136.833 18.7896 136.796 18.2268 136.592 17.7477C136.318 17.1079 135.707 16.4714 135.036 16.2537C135.036 16.2537 130.146 14.629 128.425 13.289C128.425 13.289 126.308 11.862 126.478 8.52882C126.478 8.52882 126.391 1.68497 135.283 2.34825C135.283 2.34155 138.773 2.75024 140.778 3.73511Z" fill="#212324"/>
<path d="M5.3208 19.0676V19.081H5.71495C5.58134 19.081 5.45107 19.0777 5.3208 19.0676Z" fill="#64A664"/>
<path d="M5.3208 19.071C5.45107 19.0777 5.58468 19.0811 5.71495 19.0811H5.3208V19.071Z" fill="#64A664"/>
<path d="M5.71495 19.081H5.3208V19.0676C5.45107 19.0777 5.58134 19.081 5.71495 19.081Z" fill="#64A664"/>
</svg>
