<svg width="22" height="26" viewBox="0 0 22 26" fill="none" xmlns="http://www.w3.org/2000/svg">
<path d="M11.5312 0.138672C10.1738 0.138604 8.84692 0.541047 7.71828 1.29511C6.58964 2.04917 5.70996 3.12098 5.19047 4.375C4.67099 5.62902 4.53503 7.00892 4.7998 8.34021C5.06456 9.6715 5.71816 10.8944 6.67794 11.8542C7.63771 12.814 8.86056 13.4677 10.1918 13.7325C11.5231 13.9973 12.903 13.8615 14.1571 13.342C15.4111 12.8226 16.483 11.943 17.2371 10.8144C17.9912 9.68578 18.3937 8.3589 18.3937 7.00154C18.3937 5.18145 17.6707 3.43591 16.3837 2.14888C15.0968 0.861853 13.3513 0.138762 11.5312 0.138672ZM10.9938 6.51561H12.0489C12.5218 6.51517 12.9754 6.70259 13.3101 7.03663C13.6448 7.37067 13.833 7.82398 13.8335 8.29684C13.8339 8.76969 13.6465 9.22335 13.3125 9.55802C12.9784 9.89269 12.5251 10.0809 12.0523 10.0814V10.9598C12.0541 11.0366 12.0406 11.1131 12.0125 11.1847C11.9844 11.2562 11.9422 11.3214 11.8885 11.3765C11.8348 11.4315 11.7706 11.4752 11.6998 11.5051C11.6289 11.5349 11.5528 11.5503 11.4759 11.5503C11.399 11.5503 11.3229 11.5349 11.2521 11.5051C11.1812 11.4752 11.117 11.4315 11.0633 11.3765C11.0096 11.3214 10.9675 11.2562 10.9394 11.1847C10.9112 11.1131 10.8977 11.0366 10.8996 10.9598V10.0816H9.69688C9.54398 10.0816 9.39734 10.0209 9.28923 9.91275C9.18111 9.80464 9.12037 9.658 9.12037 9.5051C9.12037 9.3522 9.18111 9.20557 9.28923 9.09745C9.39734 8.98934 9.54398 8.9286 9.69688 8.9286H12.0489C12.1323 8.92957 12.215 8.91399 12.2922 8.88277C12.3695 8.85155 12.4398 8.80531 12.4991 8.74673C12.5584 8.68814 12.6054 8.61837 12.6375 8.54147C12.6696 8.46457 12.6862 8.38206 12.6862 8.29872C12.6862 8.21537 12.6696 8.13286 12.6375 8.05596C12.6054 7.97906 12.5584 7.90929 12.4991 7.8507C12.4398 7.79212 12.3695 7.74588 12.2922 7.71466C12.215 7.68344 12.1323 7.66786 12.0489 7.66883H10.9938C10.5054 7.66991 10.0358 7.47979 9.68573 7.13915C9.33562 6.7985 9.13271 6.33438 9.12039 5.84605C9.10808 5.35772 9.28734 4.88396 9.61984 4.52611C9.95234 4.16825 10.4117 3.95471 10.8996 3.93117V3.0434C10.8977 2.96653 10.9112 2.89007 10.9394 2.8185C10.9675 2.74694 11.0096 2.68173 11.0633 2.6267C11.117 2.57168 11.1812 2.52795 11.2521 2.4981C11.3229 2.46824 11.399 2.45286 11.4759 2.45286C11.5528 2.45286 11.6289 2.46824 11.6998 2.4981C11.7706 2.52795 11.8348 2.57168 11.8885 2.6267C11.9422 2.68173 11.9844 2.74694 12.0125 2.8185C12.0406 2.89007 12.0541 2.96653 12.0523 3.0434V3.92143H13.3655C13.5184 3.92143 13.665 3.98217 13.7731 4.09029C13.8813 4.1984 13.942 4.34504 13.942 4.49793C13.942 4.65083 13.8813 4.79747 13.7731 4.90558C13.665 5.0137 13.5184 5.07444 13.3655 5.07444H10.9938C10.8027 5.07444 10.6195 5.15035 10.4843 5.28548C10.3492 5.42061 10.2733 5.60388 10.2733 5.79498C10.2733 5.98608 10.3492 6.16936 10.4843 6.30448C10.6195 6.43961 10.8027 6.51553 10.9938 6.51553V6.51561Z" fill="#7F828B"/>
<path d="M4.12692 15.2949H1.32648C1.26794 15.2949 1.20997 15.3064 1.15589 15.3289C1.10181 15.3513 1.05267 15.3841 1.01129 15.4255C0.969906 15.4669 0.937087 15.5161 0.914707 15.5701C0.892327 15.6242 0.880826 15.6822 0.880859 15.7408V25.2984C0.880871 25.4165 0.927824 25.5299 1.01139 25.6134C1.09496 25.697 1.2083 25.7439 1.32648 25.7439H4.12692C4.38449 25.7439 4.6315 25.6415 4.81362 25.4594C4.99574 25.2772 5.09805 25.0302 5.09805 24.7726V16.266C5.09799 16.0085 4.99565 15.7615 4.81354 15.5794C4.63143 15.3973 4.38445 15.295 4.12692 15.2949Z" fill="#7F828B"/>
<path d="M21.7299 16.4163C21.5818 16.1909 21.38 16.0059 21.1426 15.878C20.9052 15.7501 20.6396 15.6833 20.3699 15.6836H19.2724C18.8016 15.6826 18.341 15.8219 17.9497 16.0838C17.5583 16.3457 17.2538 16.7182 17.0751 17.1539C16.969 17.4071 16.8212 17.6408 16.6377 17.8451C16.326 18.3237 15.9043 18.7208 15.4077 19.003C14.9112 19.2853 14.3543 19.4445 13.7836 19.4675L10.5328 19.4677C10.3799 19.4677 10.2333 19.407 10.1252 19.2989C10.0171 19.1908 9.95632 19.0441 9.95632 18.8912C9.95632 18.7383 10.0171 18.5917 10.1252 18.4836C10.2333 18.3755 10.3799 18.3147 10.5328 18.3147H13.7682C14.1838 18.3041 14.5877 18.1741 14.9316 17.9404V17.9209C14.9327 17.6275 14.8759 17.3368 14.7644 17.0654C14.653 16.794 14.489 16.5473 14.282 16.3395C14.0749 16.1316 13.8289 15.9667 13.558 15.8541C13.287 15.7416 12.9965 15.6836 12.7032 15.6836H10.3177C9.88184 15.6823 9.45002 15.7673 9.04714 15.9337C8.64425 16.1001 8.27827 16.3445 7.97029 16.653L7.90939 16.7137C7.45804 17.1643 6.87848 17.4645 6.25 17.5732V23.941H14.9494C16.2392 23.9418 17.501 23.5641 18.5781 22.8546C19.6553 22.145 20.5006 21.135 21.0091 19.9496L21.8661 17.9549C21.9729 17.7073 22.0164 17.437 21.9927 17.1684C21.9689 16.8998 21.8786 16.6413 21.7299 16.4163Z" fill="#7F828B"/>
</svg>
