<svg width="18" height="21" viewBox="0 0 18 21" fill="none" xmlns="http://www.w3.org/2000/svg">
<path d="M9.07224 0.0351563C8.00014 0.0351029 6.95209 0.35297 6.06064 0.948562C5.16919 1.54415 4.47438 2.39072 4.06407 3.3812C3.65375 4.37168 3.54637 5.46159 3.75549 6.5131C3.96462 7.56461 4.48086 8.5305 5.23893 9.28861C5.99701 10.0467 6.96287 10.563 8.01437 10.7722C9.06587 10.9814 10.1558 10.874 11.1463 10.4638C12.1368 10.0535 12.9834 9.35873 13.579 8.46731C14.1747 7.57589 14.4926 6.52787 14.4926 5.45576C14.4926 4.01817 13.9215 2.63946 12.905 1.62291C11.8885 0.606357 10.5098 0.0352278 9.07224 0.0351563ZM8.64782 5.07195H9.48118C9.85466 5.0716 10.213 5.21963 10.4773 5.48348C10.7417 5.74732 10.8904 6.10536 10.8907 6.47884C10.8911 6.85232 10.743 7.21065 10.4792 7.47498C10.2153 7.73932 9.85729 7.88802 9.48381 7.88837V8.58215C9.48529 8.64286 9.47461 8.70326 9.4524 8.75978C9.43018 8.8163 9.39689 8.86781 9.35447 8.91127C9.31206 8.95473 9.26137 8.98927 9.20541 9.01285C9.14944 9.03643 9.08933 9.04858 9.0286 9.04858C8.96787 9.04858 8.90775 9.03643 8.85179 9.01285C8.79582 8.98927 8.74514 8.95473 8.70272 8.91127C8.66031 8.86781 8.62701 8.8163 8.6048 8.75978C8.58259 8.70326 8.57191 8.64286 8.57338 8.58215V7.88854H7.62343C7.50266 7.88854 7.38684 7.84056 7.30145 7.75517C7.21605 7.66977 7.16808 7.55395 7.16808 7.43319C7.16808 7.31242 7.21605 7.1966 7.30145 7.11121C7.38684 7.02581 7.50266 6.97784 7.62343 6.97784H9.48118C9.547 6.97861 9.61232 6.9663 9.67335 6.94164C9.73439 6.91699 9.78992 6.88046 9.83674 6.83419C9.88355 6.78791 9.92072 6.73281 9.94609 6.67207C9.97146 6.61133 9.98452 6.54615 9.98452 6.48033C9.98452 6.4145 9.97146 6.34933 9.94609 6.28859C9.92072 6.22785 9.88355 6.17274 9.83674 6.12647C9.78992 6.08019 9.73439 6.04367 9.67335 6.01901C9.61232 5.99435 9.547 5.98205 9.48118 5.98282H8.64782C8.262 5.98367 7.89116 5.8335 7.61462 5.56445C7.33809 5.29539 7.17782 4.92881 7.16809 4.5431C7.15837 4.1574 7.29996 3.7832 7.56258 3.50055C7.8252 3.2179 8.188 3.04924 8.57338 3.03064V2.32944C8.57191 2.26873 8.58259 2.20833 8.6048 2.15181C8.62701 2.09529 8.66031 2.04378 8.70272 2.00032C8.74514 1.95686 8.79582 1.92232 8.85179 1.89874C8.90775 1.87515 8.96787 1.86301 9.0286 1.86301C9.08933 1.86301 9.14944 1.87515 9.20541 1.89874C9.26137 1.92232 9.31206 1.95686 9.35447 2.00032C9.39689 2.04378 9.43018 2.09529 9.4524 2.15181C9.47461 2.20833 9.48529 2.26873 9.48381 2.32944V3.02295H10.5211C10.6418 3.02295 10.7576 3.07092 10.843 3.15632C10.9284 3.24171 10.9764 3.35753 10.9764 3.4783C10.9764 3.59907 10.9284 3.71488 10.843 3.80028C10.7576 3.88567 10.6418 3.93365 10.5211 3.93365H8.64782C8.49689 3.93365 8.35213 3.99361 8.2454 4.10034C8.13867 4.20707 8.07871 4.35183 8.07871 4.50277C8.07871 4.65371 8.13867 4.79846 8.2454 4.90519C8.35213 5.01192 8.49689 5.07188 8.64782 5.07188V5.07195Z" fill="white"/>
<path d="M3.22404 12.0059H1.01212C0.965887 12.0059 0.920103 12.015 0.877387 12.0327C0.834672 12.0504 0.795862 12.0763 0.763176 12.109C0.730489 12.1417 0.704567 12.1805 0.686891 12.2232C0.669214 12.266 0.66013 12.3118 0.660156 12.358V19.907C0.660165 20.0004 0.697251 20.0899 0.763257 20.1559C0.829263 20.2219 0.918782 20.259 1.01212 20.259H3.22404C3.42748 20.2589 3.62258 20.1781 3.76643 20.0342C3.91027 19.8903 3.99108 19.6952 3.99108 19.4918V12.7729C3.99104 12.5695 3.91021 12.3744 3.76637 12.2305C3.62253 12.0867 3.42745 12.0059 3.22404 12.0059Z" fill="white"/>
<path d="M17.1281 12.8932C17.0111 12.7152 16.8517 12.569 16.6642 12.468C16.4767 12.367 16.2669 12.3142 16.0539 12.3145H15.1871C14.8152 12.3137 14.4514 12.4237 14.1423 12.6306C13.8332 12.8374 13.5927 13.1316 13.4515 13.4757C13.3677 13.6758 13.2509 13.8603 13.1061 14.0217C12.8599 14.3998 12.5268 14.7133 12.1346 14.9363C11.7424 15.1592 11.3025 15.285 10.8517 15.3032L8.28413 15.3033C8.16337 15.3033 8.04755 15.2554 7.96215 15.17C7.87676 15.0846 7.82879 14.9688 7.82879 14.848C7.82879 14.7272 7.87676 14.6114 7.96215 14.526C8.04755 14.4406 8.16337 14.3926 8.28413 14.3926H10.8396C11.1679 14.3842 11.4868 14.2816 11.7585 14.097V14.0816C11.7594 13.8498 11.7145 13.6202 11.6265 13.4059C11.5384 13.1915 11.4089 12.9967 11.2454 12.8325C11.0819 12.6683 10.8875 12.5381 10.6735 12.4492C10.4595 12.3603 10.2301 12.3145 9.99837 12.3145H8.11424C7.76996 12.3135 7.42889 12.3806 7.11067 12.512C6.79246 12.6434 6.50339 12.8365 6.26013 13.0801L6.21203 13.1281C5.85553 13.484 5.39777 13.7211 4.90137 13.8069V18.8365H11.7725C12.7913 18.8372 13.7879 18.5388 14.6387 17.9784C15.4895 17.418 16.1571 16.6202 16.5588 15.6839L17.2356 14.1085C17.3201 13.9129 17.3544 13.6994 17.3356 13.4872C17.3169 13.275 17.2455 13.0709 17.1281 12.8932Z" fill="white"/>
</svg>
