<svg width="36" height="44" viewBox="0 0 36 44" fill="none" xmlns="http://www.w3.org/2000/svg">
<path d="M18.1073 0.771973C15.8611 0.771861 13.6654 1.43783 11.7977 2.68566C9.93001 3.93348 8.4743 5.70713 7.61465 7.78229C6.755 9.85746 6.53001 12.1409 6.96815 14.344C7.40629 16.547 8.48787 18.5706 10.0761 20.159C11.6644 21.7473 13.6879 22.829 15.891 23.2672C18.094 23.7055 20.3775 23.4806 22.4527 22.621C24.5279 21.7615 26.3016 20.3059 27.5495 18.4383C28.7974 16.5706 29.4635 14.3749 29.4635 12.1287C29.4635 9.11682 28.2671 6.22828 26.1374 4.09849C24.0077 1.9687 21.1192 0.772123 18.1073 0.771973ZM17.2181 11.3246H18.9641C19.7466 11.3239 20.4973 11.634 21.0511 12.1868C21.6049 12.7396 21.9165 13.4897 21.9172 14.2722C21.9179 15.0547 21.6078 15.8054 21.055 16.3592C20.5022 16.913 19.7521 17.2246 18.9696 17.2253V18.6788C18.9727 18.806 18.9503 18.9326 18.9038 19.051C18.8572 19.1694 18.7875 19.2773 18.6986 19.3684C18.6098 19.4594 18.5036 19.5318 18.3863 19.5812C18.2691 19.6306 18.1431 19.6561 18.0159 19.6561C17.8886 19.6561 17.7627 19.6306 17.6454 19.5812C17.5282 19.5318 17.422 19.4594 17.3331 19.3684C17.2443 19.2773 17.1745 19.1694 17.128 19.051C17.0814 18.9326 17.0591 18.806 17.0622 18.6788V17.2257H15.0719C14.8189 17.2257 14.5762 17.1251 14.3973 16.9462C14.2184 16.7673 14.1179 16.5247 14.1179 16.2716C14.1179 16.0186 14.2184 15.776 14.3973 15.5971C14.5762 15.4182 14.8189 15.3176 15.0719 15.3176H18.9641C19.102 15.3192 19.2388 15.2935 19.3667 15.2418C19.4946 15.1902 19.6109 15.1136 19.709 15.0167C19.8071 14.9197 19.885 14.8043 19.9381 14.677C19.9913 14.5498 20.0186 14.4132 20.0186 14.2753C20.0186 14.1374 19.9913 14.0008 19.9381 13.8736C19.885 13.7463 19.8071 13.6309 19.709 13.5339C19.6109 13.437 19.4946 13.3605 19.3667 13.3088C19.2388 13.2571 19.102 13.2314 18.9641 13.233H17.2181C16.4098 13.2347 15.6328 12.9201 15.0535 12.3564C14.4741 11.7927 14.1383 11.0247 14.1179 10.2166C14.0975 9.40852 14.3942 8.62453 14.9444 8.03235C15.4946 7.44016 16.2547 7.0868 17.0622 7.04784V5.57874C17.0591 5.45154 17.0814 5.32501 17.128 5.20659C17.1745 5.08817 17.2443 4.98026 17.3331 4.8892C17.422 4.79814 17.5282 4.72578 17.6454 4.67637C17.7627 4.62697 17.8886 4.60152 18.0159 4.60152C18.1431 4.60152 18.2691 4.62697 18.3863 4.67637C18.5036 4.72578 18.6098 4.79814 18.6986 4.8892C18.7875 4.98026 18.8572 5.08817 18.9038 5.20659C18.9503 5.32501 18.9727 5.45154 18.9696 5.57874V7.03173H21.1428C21.3958 7.03173 21.6384 7.13224 21.8173 7.31115C21.9962 7.49006 22.0968 7.73271 22.0968 7.98573C22.0968 8.23875 21.9962 8.4814 21.8173 8.66031C21.6384 8.83922 21.3958 8.93973 21.1428 8.93973H17.2181C16.9019 8.93973 16.5986 9.06536 16.375 9.28897C16.1514 9.51258 16.0258 9.81586 16.0258 10.1321C16.0258 10.4483 16.1514 10.7516 16.375 10.9752C16.5986 11.1988 16.9019 11.3245 17.2181 11.3245V11.3246Z" fill="#7F828B"/>
<path d="M5.85501 25.8521H1.22081C1.12394 25.852 1.02802 25.8711 0.938521 25.9082C0.849027 25.9453 0.767717 25.9996 0.699235 26.0681C0.630754 26.1367 0.576444 26.218 0.53941 26.3075C0.502376 26.397 0.483343 26.4929 0.483399 26.5898V42.4059C0.483417 42.6014 0.561117 42.789 0.699406 42.9272C0.837695 43.0655 1.02525 43.1432 1.22081 43.1432H5.85501C6.28125 43.1431 6.69 42.9738 6.99137 42.6723C7.29274 42.3709 7.46205 41.9621 7.46205 41.5359V27.459C7.46195 27.0328 7.29261 26.6241 6.99125 26.3228C6.68989 26.0215 6.28119 25.8521 5.85501 25.8521Z" fill="#7F828B"/>
<path d="M34.9854 27.7091C34.7404 27.3361 34.4064 27.0299 34.0135 26.8183C33.6206 26.6066 33.1812 26.496 32.735 26.4966H30.9188C30.1396 26.495 29.3775 26.7255 28.7299 27.1589C28.0823 27.5922 27.5784 28.2087 27.2827 28.9296C27.1071 29.3487 26.8624 29.7353 26.5589 30.0735C26.0431 30.8655 25.3452 31.5225 24.5235 31.9896C23.7018 32.4567 22.7802 32.7203 21.8358 32.7583L16.4564 32.7586C16.2034 32.7586 15.9607 32.6581 15.7818 32.4792C15.6029 32.3003 15.5024 32.0576 15.5024 31.8046C15.5024 31.5516 15.6029 31.3089 15.7818 31.13C15.9607 30.9511 16.2034 30.8506 16.4564 30.8506H21.8103C22.4981 30.833 23.1664 30.6179 23.7355 30.2311V30.1988C23.7374 29.7134 23.6434 29.2323 23.4589 28.7832C23.2745 28.3342 23.0031 27.9259 22.6605 27.582C22.3179 27.238 21.9108 26.965 21.4624 26.7788C21.0141 26.5925 20.5334 26.4966 20.0479 26.4966H16.1005C15.3792 26.4945 14.6646 26.6352 13.9979 26.9105C13.3312 27.1858 12.7256 27.5903 12.2159 28.1007L12.1151 28.2012C11.3682 28.9469 10.4092 29.4437 9.36914 29.6235V40.1611H23.765C25.8995 40.1624 27.9874 39.5373 29.7699 38.3632C31.5524 37.1891 32.9511 35.5176 33.7926 33.556L35.2108 30.2552C35.3876 29.8455 35.4596 29.3982 35.4203 28.9537C35.3809 28.5091 35.2315 28.0814 34.9854 27.7091Z" fill="#7F828B"/>
</svg>
