<svg width="34" height="16" viewBox="0 0 34 16" fill="none" xmlns="http://www.w3.org/2000/svg">
<path d="M4.43478 2.66667C3.62174 2.66667 2.95652 2.06667 2.95652 1.33333C2.95652 0.6 3.62174 0 4.43478 0H8.18957C7.67217 0.8 7.3913 1.72 7.3913 2.66667H4.43478ZM7.3913 9.33333H2.95652C2.14348 9.33333 1.47826 8.73333 1.47826 8C1.47826 7.26667 2.14348 6.66667 2.95652 6.66667H7.3913V9.33333ZM1.47826 16C0.662261 16 0 15.4 0 14.6667C0 13.9333 0.662261 13.3333 1.47826 13.3333H7.3913C7.3913 14.28 7.67217 15.2 8.18957 16H1.47826ZM31.0435 0H13.3043C11.6635 0 10.3478 1.18667 10.3478 2.66667V13.3333C10.3478 14.8133 11.6635 16 13.3043 16H31.0435C32.6843 16 34 14.8133 34 13.3333V2.66667C34 1.18667 32.6843 0 31.0435 0ZM31.0435 2.66667V4H13.3043V2.66667H31.0435ZM13.3043 13.3333V8H31.0435V13.3333H13.3043Z" fill="#7F828B"/>
</svg>
