<svg width="17" height="19" viewBox="0 0 17 19" fill="none" xmlns="http://www.w3.org/2000/svg">
<path d="M8.721 17.803L7.65 19L6.375 17.575L5.1 19L3.825 17.575L2.55 19L1.275 17.575L0 19V0L1.275 1.425L2.55 0L3.825 1.425L5.1 0L6.375 1.425L7.65 0L8.925 1.425L10.2 0L11.475 1.425L12.75 0L14.025 1.425L15.3 0V10.7825C14.7645 10.5735 14.195 10.45 13.6 10.45V2.7645H1.7V16.2355H8.5C8.5 16.777 8.585 17.309 8.721 17.803ZM2.55 12.35V14.25H8.7975C9.0185 13.5375 9.35 12.901 9.809 12.35H2.55ZM2.55 10.45H12.75V8.55H2.55V10.45ZM2.55 6.65H12.75V4.75H2.55V6.65ZM17 14.4685L16.014 13.129L12.9625 16.5395L11.611 15.029L10.625 16.15L12.9625 19" fill="white"/>
</svg>
