<svg width="21" height="17" viewBox="0 0 21 17" fill="none" xmlns="http://www.w3.org/2000/svg">
<path d="M0.441406 2.94141C0.441406 1.84141 1.34141 0.941406 2.44141 0.941406H17.4414C17.7066 0.941406 17.961 1.04676 18.1485 1.2343C18.3361 1.42184 18.4414 1.67619 18.4414 1.94141V2.94141H2.44141V3.94141H19.4414C19.7066 3.94141 19.961 4.04676 20.1485 4.2343C20.3361 4.42184 20.4414 4.67619 20.4414 4.94141V14.9414C20.4414 15.4718 20.2307 15.9805 19.8556 16.3556C19.4805 16.7307 18.9718 16.9414 18.4414 16.9414H2.44141C1.91097 16.9414 1.40227 16.7307 1.02719 16.3556C0.65212 15.9805 0.441406 15.4718 0.441406 14.9414V2.94141ZM16.9414 11.9414C17.3392 11.9414 17.7208 11.7834 18.0021 11.5021C18.2834 11.2208 18.4414 10.8392 18.4414 10.4414C18.4414 10.0436 18.2834 9.66205 18.0021 9.38075C17.7208 9.09944 17.3392 8.94141 16.9414 8.94141C16.5436 8.94141 16.1621 9.09944 15.8807 9.38075C15.5994 9.66205 15.4414 10.0436 15.4414 10.4414C15.4414 10.8392 15.5994 11.2208 15.8807 11.5021C16.1621 11.7834 16.5436 11.9414 16.9414 11.9414Z" fill="url(#paint0_linear_1056_6078)"/>
<defs>
<linearGradient id="paint0_linear_1056_6078" x1="-1.62264" y1="-0.890562" x2="22.585" y2="17.2471" gradientUnits="userSpaceOnUse">
<stop stop-color="#99D798"/>
<stop offset="1" stop-color="#65A664"/>
</linearGradient>
</defs>
</svg>
