<svg width="34" height="28" viewBox="0 0 34 28" fill="none" xmlns="http://www.w3.org/2000/svg">
<path d="M0.409668 4.02886C0.409668 2.20857 1.899 0.719238 3.71929 0.719238H28.5415C28.9803 0.719238 29.4013 0.893584 29.7116 1.20392C30.0219 1.51426 30.1963 1.93517 30.1963 2.37405V4.02886H3.71929V5.68367H31.8511C32.29 5.68367 32.7109 5.85802 33.0212 6.16836C33.3316 6.47869 33.5059 6.8996 33.5059 7.33848V23.8866C33.5059 24.7644 33.1572 25.6062 32.5365 26.2269C31.9159 26.8475 31.074 27.1962 30.1963 27.1962H3.71929C2.84152 27.1962 1.99971 26.8475 1.37903 26.2269C0.758359 25.6062 0.409668 24.7644 0.409668 23.8866V4.02886ZM27.7141 18.9222C28.3724 18.9222 29.0037 18.6606 29.4692 18.1951C29.9348 17.7296 30.1963 17.0983 30.1963 16.4399C30.1963 15.7816 29.9348 15.1503 29.4692 14.6848C29.0037 14.2192 28.3724 13.9577 27.7141 13.9577C27.0557 13.9577 26.4244 14.2192 25.9589 14.6848C25.4934 15.1503 25.2318 15.7816 25.2318 16.4399C25.2318 17.0983 25.4934 17.7296 25.9589 18.1951C26.4244 18.6606 27.0557 18.9222 27.7141 18.9222Z" fill="url(#paint0_linear_2899_11602)"/>
<defs>
<linearGradient id="paint0_linear_2899_11602" x1="-3.00595" y1="-2.31232" x2="37.0531" y2="27.702" gradientUnits="userSpaceOnUse">
<stop stop-color="#99D798"/>
<stop offset="1" stop-color="#65A664"/>
</linearGradient>
</defs>
</svg>
