<svg width="18" height="14" viewBox="0 0 18 14" fill="none" xmlns="http://www.w3.org/2000/svg">
<path d="M0.27832 1.76781C0.27832 0.808403 1.06329 0.0234375 2.02269 0.0234375H15.1054C15.3368 0.0234375 15.5586 0.115328 15.7222 0.278894C15.8857 0.44246 15.9776 0.664304 15.9776 0.895621V1.76781H2.02269V2.63999H16.8498C17.0811 2.63999 17.303 2.73188 17.4665 2.89545C17.6301 3.05901 17.722 3.28086 17.722 3.51217V12.234C17.722 12.6966 17.5382 13.1403 17.2111 13.4675C16.884 13.7946 16.4403 13.9784 15.9776 13.9784H2.02269C1.56005 13.9784 1.11637 13.7946 0.789234 13.4675C0.462101 13.1403 0.27832 12.6966 0.27832 12.234V1.76781ZM14.6694 9.61746C15.0163 9.61746 15.3491 9.47963 15.5944 9.23428C15.8398 8.98893 15.9776 8.65616 15.9776 8.30919C15.9776 7.96221 15.8398 7.62944 15.5944 7.38409C15.3491 7.13874 15.0163 7.00091 14.6694 7.00091C14.3224 7.00091 13.9896 7.13874 13.7443 7.38409C13.4989 7.62944 13.3611 7.96221 13.3611 8.30919C13.3611 8.65616 13.4989 8.98893 13.7443 9.23428C13.9896 9.47963 14.3224 9.61746 14.6694 9.61746Z" fill="white"/>
</svg>
