<svg width="20" height="26" viewBox="0 0 20 26" fill="none" xmlns="http://www.w3.org/2000/svg">
<path d="M19.375 25.3971H17.2917V20.144C17.2908 19.3273 16.9661 18.5444 16.3886 17.9669C15.8111 17.3894 15.0281 17.0646 14.2115 17.0638H5.78854C4.97187 17.0646 4.18889 17.3894 3.61142 17.9669C3.03395 18.5444 2.70916 19.3273 2.70833 20.144V25.3971H0.625V20.144C0.626654 18.7751 1.1712 17.4627 2.13919 16.4947C3.10719 15.5267 4.41959 14.9821 5.78854 14.9805H14.2115C15.5804 14.9821 16.8928 15.5267 17.8608 16.4947C18.8288 17.4627 19.3733 18.7751 19.375 20.144V25.3971Z" fill="#7F828B"/>
<path d="M10 12.8965C8.76387 12.8965 7.5555 12.5299 6.52769 11.8432C5.49988 11.1564 4.6988 10.1803 4.22576 9.03826C3.75271 7.89622 3.62894 6.63955 3.87009 5.42717C4.11125 4.21479 4.70651 3.10115 5.58059 2.22707C6.45466 1.35299 7.56831 0.757737 8.78069 0.516579C9.99307 0.275422 11.2497 0.399192 12.3918 0.87224C13.5338 1.34529 14.5099 2.14637 15.1967 3.17417C15.8834 4.20198 16.25 5.41035 16.25 6.64649C16.2483 8.30358 15.5893 9.89233 14.4176 11.0641C13.2458 12.2358 11.6571 12.8948 10 12.8965ZM10 2.47982C9.17591 2.47982 8.37033 2.72419 7.68513 3.18203C6.99992 3.63987 6.46587 4.29061 6.1505 5.05197C5.83514 5.81333 5.75263 6.65111 5.9134 7.45936C6.07417 8.26762 6.47101 9.01005 7.05372 9.59277C7.63644 10.1755 8.37887 10.5723 9.18713 10.7331C9.99538 10.8939 10.8332 10.8114 11.5945 10.496C12.3559 10.1806 13.0066 9.64657 13.4645 8.96136C13.9223 8.27616 14.1667 7.47058 14.1667 6.64649C14.1667 5.54142 13.7277 4.48161 12.9463 3.70021C12.1649 2.91881 11.1051 2.47982 10 2.47982Z" fill="#7F828B"/>
</svg>
