<svg width="26" height="26" viewBox="0 0 26 26" fill="none" xmlns="http://www.w3.org/2000/svg">
<path d="M24.8344 9.8289L16.9333 1.92682C15.9555 0.951812 14.6309 0.404297 13.25 0.404297C11.8691 0.404297 10.5445 0.951812 9.56667 1.92682L1.66564 9.8289C1.37441 10.1183 1.14352 10.4625 0.986348 10.8418C0.829174 11.2211 0.748843 11.6277 0.750013 12.0383V22.2643C0.750013 23.0931 1.07925 23.888 1.6653 24.474C2.25135 25.0601 3.04621 25.3893 3.87501 25.3893H22.625C23.4538 25.3893 24.2486 25.0601 24.8347 24.474C25.4207 23.888 25.75 23.0931 25.75 22.2643V12.0383C25.7512 11.6277 25.6708 11.2211 25.5136 10.8418C25.3565 10.4625 25.1256 10.1183 24.8344 9.8289V9.8289ZM16.375 23.306H10.125V19.2081C10.125 18.3793 10.4542 17.5844 11.0403 16.9983C11.6263 16.4123 12.4212 16.0831 13.25 16.0831C14.0788 16.0831 14.8737 16.4123 15.4597 16.9983C16.0458 17.5844 16.375 18.3793 16.375 19.2081V23.306ZM23.6667 22.2643C23.6667 22.5406 23.5569 22.8055 23.3616 23.0009C23.1662 23.1962 22.9013 23.306 22.625 23.306H18.4583V19.2081C18.4583 17.8267 17.9096 16.502 16.9328 15.5252C15.9561 14.5485 14.6313 13.9997 13.25 13.9997C11.8687 13.9997 10.5439 14.5485 9.56716 15.5252C8.5904 16.502 8.04167 17.8267 8.04167 19.2081V23.306H3.87501C3.59874 23.306 3.33379 23.1962 3.13844 23.0009C2.94309 22.8055 2.83334 22.5406 2.83334 22.2643V12.0383C2.83431 11.7622 2.94396 11.4976 3.13855 11.3018L11.0396 3.40286C11.6268 2.81841 12.4215 2.4903 13.25 2.4903C14.0785 2.4903 14.8732 2.81841 15.4604 3.40286L23.3614 11.3049C23.5553 11.5 23.6649 11.7633 23.6667 12.0383V22.2643Z" fill="#7F828B"/>
</svg>
