<svg width="26" height="26" viewBox="0 0 26 26" fill="none" xmlns="http://www.w3.org/2000/svg">
<path d="M25.2078 23.6267L18.9952 17.4141C20.6882 15.3436 21.5206 12.7014 21.3202 10.0343C21.1198 7.36723 19.902 4.87917 17.9186 3.0848C15.9352 1.29043 13.338 0.327032 10.6642 0.393885C7.99041 0.460739 5.44459 1.55272 3.55335 3.44397C1.6621 5.33522 0.570114 7.88103 0.50326 10.5548C0.436407 13.2286 1.3998 15.8258 3.19417 17.8092C4.98854 19.7926 7.4766 21.0105 10.1437 21.2109C12.8108 21.4113 15.4529 20.5789 17.5235 18.8859L23.7361 25.0985C23.9324 25.288 24.1953 25.393 24.4682 25.3906C24.7411 25.3882 25.0022 25.2788 25.1952 25.0858C25.3881 24.8928 25.4976 24.6318 25.5 24.3589C25.5023 24.086 25.3974 23.823 25.2078 23.6267ZM10.9414 19.1585C9.2946 19.1585 7.68476 18.6702 6.31548 17.7553C4.94619 16.8404 3.87897 15.5399 3.24875 14.0185C2.61854 12.497 2.45365 10.8228 2.77493 9.20764C3.09621 7.59245 3.88923 6.10882 5.05371 4.94434C6.21819 3.77985 7.70183 2.98683 9.31701 2.66555C10.9322 2.34427 12.6064 2.50917 14.1278 3.13938C15.6493 3.76959 16.9497 4.83682 17.8647 6.2061C18.7796 7.57539 19.2679 9.18523 19.2679 10.8321C19.2654 13.0396 18.3874 15.1561 16.8264 16.717C15.2654 18.278 13.149 19.1561 10.9414 19.1585Z" fill="#7F828B"/>
</svg>
