<svg width="26" height="20" viewBox="0 0 26 20" fill="none" xmlns="http://www.w3.org/2000/svg">
<path d="M6.22852 15.1055C7.09146 15.1055 7.79102 14.4059 7.79102 13.543C7.79102 12.68 7.09146 11.9805 6.22852 11.9805C5.36557 11.9805 4.66602 12.68 4.66602 13.543C4.66602 14.4059 5.36557 15.1055 6.22852 15.1055Z" fill="#7F828B"/>
<path d="M20.2917 0.521484H5.70833C4.32751 0.523138 3.00371 1.0724 2.02731 2.0488C1.05092 3.02519 0.501654 4.34899 0.5 5.72982L0.5 14.0632C0.501654 15.444 1.05092 16.7678 2.02731 17.7442C3.00371 18.7206 4.32751 19.2698 5.70833 19.2715H20.2917C21.6725 19.2698 22.9963 18.7206 23.9727 17.7442C24.9491 16.7678 25.4983 15.444 25.5 14.0632V5.72982C25.4983 4.34899 24.9491 3.02519 23.9727 2.0488C22.9963 1.0724 21.6725 0.523138 20.2917 0.521484ZM5.70833 2.60482H20.2917C21.1205 2.60482 21.9153 2.93406 22.5014 3.52011C23.0874 4.10616 23.4167 4.90102 23.4167 5.72982H2.58333C2.58333 4.90102 2.91257 4.10616 3.49862 3.52011C4.08468 2.93406 4.87953 2.60482 5.70833 2.60482ZM20.2917 17.1882H5.70833C4.87953 17.1882 4.08468 16.8589 3.49862 16.2729C2.91257 15.6868 2.58333 14.892 2.58333 14.0632V7.81315H23.4167V14.0632C23.4167 14.892 23.0874 15.6868 22.5014 16.2729C21.9153 16.8589 21.1205 17.1882 20.2917 17.1882Z" fill="#7F828B"/>
</svg>
