<svg width="26" height="20" viewBox="0 0 26 20" fill="none" xmlns="http://www.w3.org/2000/svg">
<path d="M20.2917 0.521484H5.70833C4.32751 0.523138 3.00371 1.0724 2.02731 2.0488C1.05092 3.02519 0.501654 4.34899 0.5 5.72982H25.5C25.4983 4.34899 24.9491 3.02519 23.9727 2.0488C22.9963 1.0724 21.6725 0.523138 20.2917 0.521484Z" fill="#65A664"/>
<path d="M0.5 14.0625C0.501654 15.4433 1.05092 16.7671 2.02731 17.7435C3.00371 18.7199 4.32751 19.2692 5.70833 19.2708H20.2917C21.6725 19.2692 22.9963 18.7199 23.9727 17.7435C24.9491 16.7671 25.4983 15.4433 25.5 14.0625V7.8125H0.5V14.0625ZM7.79167 13.5417C7.79167 13.8507 7.70003 14.1528 7.52834 14.4097C7.35665 14.6667 7.11262 14.867 6.82711 14.9852C6.5416 15.1035 6.22743 15.1344 5.92434 15.0741C5.62124 15.0139 5.34283 14.865 5.12431 14.6465C4.90579 14.428 4.75698 14.1496 4.69669 13.8465C4.6364 13.5434 4.66734 13.2292 4.7856 12.9437C4.90387 12.6582 5.10414 12.4142 5.36109 12.2425C5.61804 12.0708 5.92013 11.9792 6.22917 11.9792C6.64357 11.9792 7.041 12.1438 7.33402 12.4368C7.62705 12.7298 7.79167 13.1273 7.79167 13.5417Z" fill="#65A664"/>
</svg>
