<svg width="24" height="25" viewBox="0 0 24 25" fill="none" xmlns="http://www.w3.org/2000/svg">
<path d="M21.6896 13.7398C21.5022 15.9556 20.5629 18.0407 19.0275 19.6492C17.4921 21.2577 15.4529 22.293 13.2482 22.5831C11.0435 22.8733 8.80592 22.401 6.90659 21.2446C5.00725 20.0882 3.56037 18.3172 2.80599 16.2254C2.05161 14.1335 2.03507 11.8467 2.75913 9.74418C3.48318 7.64167 4.9043 5.84991 6.78672 4.66615C8.66913 3.48238 10.8997 2.97778 13.1083 3.23606C15.317 3.49433 17.3709 4.49995 18.9294 6.08609H15.8951C15.6374 6.08609 15.3902 6.18849 15.2079 6.37076C15.0256 6.55302 14.9232 6.80023 14.9232 7.058C14.9232 7.31576 15.0256 7.56297 15.2079 7.74524C15.3902 7.92751 15.6374 8.0299 15.8951 8.0299H19.9217C20.4003 8.02964 20.8592 7.83941 21.1977 7.501C21.5361 7.16258 21.7263 6.70367 21.7266 6.22507V2.19847C21.7266 1.9407 21.6242 1.69349 21.4419 1.51123C21.2596 1.32896 21.0124 1.22656 20.7547 1.22656V1.22656C20.4969 1.22656 20.2497 1.32896 20.0674 1.51123C19.8852 1.69349 19.7828 1.9407 19.7828 2.19847V4.21809C17.8279 2.47131 15.341 1.43502 12.7243 1.27682C10.1075 1.11862 7.51385 1.84776 5.36284 3.34632C3.21182 4.84488 1.6292 7.02522 0.87094 9.53472C0.112679 12.0442 0.223115 14.7361 1.18439 17.1751C2.14566 19.614 3.90156 21.6574 6.1681 22.9747C8.43463 24.2921 11.0793 24.8063 13.6743 24.4343C16.2693 24.0623 18.663 22.8258 20.4682 20.9247C22.2733 19.0237 23.3844 16.5693 23.6218 13.9585C23.6343 13.8232 23.6186 13.6867 23.5755 13.5578C23.5324 13.4289 23.4629 13.3104 23.3714 13.2098C23.28 13.1092 23.1686 13.0288 23.0444 12.9736C22.9202 12.9185 22.7858 12.8898 22.6499 12.8894C22.4128 12.8866 22.1831 12.9721 22.0056 13.1293C21.8281 13.2865 21.7155 13.5041 21.6896 13.7398Z" fill="#7F828B" stroke="#7F828B" stroke-width="0.5"/>
</svg>
